<svg width="276" height="42" viewBox="0 0 276 42" fill="none" xmlns="http://www.w3.org/2000/svg">
<path d="M125.318 30.5334C124.338 30.5334 123.444 30.3685 122.637 30.0389C121.831 29.7093 121.135 29.2855 120.55 28.7675L121.594 27.4254C122.115 27.8963 122.693 28.273 123.325 28.5555C123.974 28.8381 124.662 28.9794 125.39 28.9794C126.196 28.9794 126.813 28.8067 127.24 28.4614C127.683 28.116 127.904 27.6687 127.904 27.1193C127.904 26.5228 127.707 26.0911 127.311 25.8243C126.932 25.5574 126.457 25.3063 125.888 25.0708L124.346 24.4586C123.507 24.1447 122.78 23.7366 122.163 23.2343C121.562 22.7163 121.261 22.0178 121.261 21.1387C121.261 20.1184 121.657 19.3022 122.448 18.69C123.254 18.0778 124.282 17.7717 125.532 17.7717C126.433 17.7717 127.224 17.9208 127.904 18.2191C128.6 18.5173 129.17 18.8627 129.613 19.2551L128.592 20.5265C128.181 20.1655 127.715 19.8751 127.193 19.6554C126.671 19.4356 126.109 19.3257 125.508 19.3257C124.812 19.3257 124.259 19.4748 123.847 19.7731C123.436 20.0713 123.231 20.4952 123.231 21.0445C123.231 21.5312 123.405 21.9079 123.753 22.1747C124.116 22.4416 124.615 22.7006 125.247 22.9517L126.813 23.5639C127.414 23.7837 127.944 24.027 128.403 24.2938C128.877 24.5607 129.241 24.906 129.494 25.3298C129.763 25.7379 129.897 26.2873 129.897 26.978C129.897 27.9826 129.486 28.8302 128.664 29.5209C127.841 30.1959 126.726 30.5334 125.318 30.5334Z" fill="#F79532"/>
<path d="M135.712 30.2508V19.6789H131.821V18.0543H141.573V19.6789H137.682V30.2508H135.712Z" fill="#F79532"/>
<path d="M145.198 30.2508V18.0543H149.444C150.362 18.0543 151.169 18.1642 151.864 18.3839C152.576 18.6037 153.138 18.9725 153.549 19.4905C153.96 20.0085 154.166 20.7149 154.166 21.6096C154.166 22.5201 153.905 23.2735 153.383 23.87C152.877 24.4665 152.197 24.8825 151.342 25.1179L154.617 30.2508H152.505L149.444 25.3534H147.167V30.2508H145.198ZM147.167 23.9406H149.231C151.271 23.9406 152.292 23.2029 152.292 21.7274C152.292 20.9425 152.023 20.3931 151.485 20.0792C150.947 19.7652 150.188 19.6083 149.207 19.6083H147.167V23.9406Z" fill="#F79532"/>
<path d="M158.447 30.2508V18.0543H166.181V19.6083H160.416V23.1401H165.303V24.6235H160.416V28.6968H166.418V30.2508H158.447Z" fill="#F79532"/>
<path d="M175.241 30.5334C174.133 30.5334 173.137 30.2901 172.251 29.8035C171.365 29.3012 170.669 28.5791 170.163 27.6373C169.657 26.6798 169.404 25.526 169.404 24.1761C169.404 22.8418 169.665 21.7038 170.187 20.762C170.725 19.8045 171.445 19.0667 172.346 18.5487C173.248 18.0307 174.268 17.7717 175.407 17.7717C176.198 17.7717 176.901 17.9287 177.518 18.2426C178.151 18.5566 178.673 18.9176 179.084 19.3257L177.969 20.5265C177.621 20.1812 177.242 19.9144 176.83 19.726C176.435 19.5219 175.968 19.4199 175.43 19.4199C174.228 19.4199 173.256 19.8437 172.512 20.6914C171.785 21.5233 171.421 22.6692 171.421 24.129C171.421 25.6045 171.769 26.7661 172.465 27.6137C173.176 28.4614 174.133 28.8852 175.336 28.8852C175.952 28.8852 176.49 28.7753 176.949 28.5555C177.423 28.3201 177.858 27.9983 178.254 27.5902L179.345 28.7675C178.807 29.3482 178.198 29.7878 177.518 30.086C176.854 30.3842 176.095 30.5334 175.241 30.5334Z" fill="#F79532"/>
<path d="M183.068 30.2508V18.0543H185.037V23.0224H190.921V18.0543H192.89V30.2508H190.921V24.7176H185.037V30.2508H183.068Z" fill="#F79532"/>
<path d="M199.789 30.2508V25.6359L195.826 18.0543H197.914L199.48 21.28C199.686 21.7195 199.891 22.159 200.097 22.5985C200.318 23.0381 200.54 23.4854 200.761 23.9406H200.856C201.078 23.4854 201.291 23.0381 201.497 22.5985C201.702 22.159 201.908 21.7195 202.114 21.28L203.679 18.0543H205.72L201.758 25.6359V30.2508H199.789Z" fill="#F79532"/>
<path d="M214.243 30.2508V18.0543H218.442C219.423 18.0543 220.285 18.172 221.028 18.4075C221.772 18.6429 222.349 19.0275 222.76 19.5612C223.187 20.0949 223.401 20.8248 223.401 21.7509C223.401 23.0852 222.934 24.0662 222.001 24.6941C221.084 25.322 219.897 25.6359 218.442 25.6359H216.212V30.2508H214.243ZM216.212 24.2232H218.3C219.391 24.2232 220.19 24.027 220.696 23.6345C221.218 23.2421 221.479 22.6456 221.479 21.8451C221.479 21.0132 221.21 20.4324 220.672 20.1027C220.15 19.7731 219.344 19.6083 218.252 19.6083H216.212V24.2232Z" fill="#F79532"/>
<path d="M232.216 30.5334C231.093 30.5334 230.097 30.2744 229.227 29.7564C228.357 29.2384 227.677 28.5006 227.187 27.5431C226.696 26.5856 226.451 25.4475 226.451 24.129C226.451 22.7948 226.696 21.6567 227.187 20.7149C227.677 19.7574 228.357 19.0275 229.227 18.5252C230.097 18.0229 231.093 17.7717 232.216 17.7717C233.339 17.7717 234.336 18.0229 235.206 18.5252C236.076 19.0275 236.756 19.7574 237.246 20.7149C237.737 21.6567 237.982 22.7948 237.982 24.129C237.982 25.4475 237.737 26.5856 237.246 27.5431C236.756 28.5006 236.076 29.2384 235.206 29.7564C234.336 30.2744 233.339 30.5334 232.216 30.5334ZM232.216 28.8852C233.339 28.8852 234.241 28.4614 234.921 27.6137C235.601 26.7504 235.941 25.5888 235.941 24.129C235.941 22.6535 235.601 21.4998 234.921 20.6678C234.241 19.8359 233.339 19.4199 232.216 19.4199C231.093 19.4199 230.192 19.8359 229.512 20.6678C228.832 21.4998 228.492 22.6535 228.492 24.129C228.492 25.5888 228.832 26.7504 229.512 27.6137C230.192 28.4614 231.093 28.8852 232.216 28.8852Z" fill="#F79532"/>
<path d="M242.154 30.2508V18.0543H244.123V28.6262H249.746V30.2508H242.154Z" fill="#F79532"/>
<path d="M255.847 23.611L255.278 25.3534H258.979L258.409 23.611C258.188 22.936 257.982 22.2768 257.793 21.6332C257.603 20.9739 257.397 20.3068 257.176 19.6318H257.081C256.875 20.3068 256.67 20.9739 256.464 21.6332C256.274 22.2768 256.069 22.936 255.847 23.611ZM251.648 30.2508L256.037 18.0543H258.267L262.68 30.2508H260.592L259.453 26.8132H254.779L253.641 30.2508H251.648ZM256.749 16.5709L255.871 15.582L259.24 12.5682L260.355 13.8632L256.749 16.5709Z" fill="#F79532"/>
<path d="M265.687 30.2508V18.0543H267.656V23.8465H267.727L272.899 18.0543H275.082L270.977 22.7634L275.651 30.2508H273.54L269.791 24.129L267.656 26.3658V30.2508H265.687Z" fill="#F79532"/>
<path d="M106.988 30.4298L73.2958 0.173554C73.2376 0.115703 73.2376 0.115703 73.1794 0.0578518H73.1212C73.0631 0.0578518 73.0049 0 72.9467 0H51.242C51.0674 0 50.8929 0.0578517 50.7765 0.173554L0.267983 40.7273C-0.255723 41.1322 0.035224 42 0.733498 42H21.7399C21.8563 42 21.9145 41.9422 22.0309 41.8843L71.5501 2.08264C71.6665 2.02479 71.8411 2.02479 71.8993 2.08264L76.8454 6.53719C80.6277 10.0083 82.8389 14.9256 82.8389 20.0744C82.8389 30.1983 74.576 38.4132 64.3928 38.4132C58.8066 38.4132 53.7441 35.9835 50.1946 31.5868L49.6127 30.8926C49.4963 30.7769 49.3217 30.7769 49.2054 30.8347L39.5459 39.3967C39.4295 39.5124 39.4295 39.686 39.5459 39.8017L40.7097 41.1322C40.8261 41.2479 41.0006 41.2479 41.117 41.1322L49.0308 34.1322C49.1472 34.0165 49.3217 34.0165 49.4381 34.1322C53.3368 38.3554 58.6321 40.6694 64.451 40.6694C75.9144 40.6694 85.2247 31.4132 85.2247 20.0165C85.2247 17.876 84.8755 15.7934 84.2355 13.7686C84.1773 13.4793 84.4682 13.3058 84.701 13.4793L105.475 32.1074C105.591 32.2231 105.766 32.2231 105.882 32.1074L107.046 30.8347C107.104 30.719 107.104 30.5455 106.988 30.4298Z" fill="#F79532"/>
<path d="M71.492 26.4959L74.0523 23.9504C74.2269 23.7769 74.2269 23.5455 74.0523 23.3719L71.2592 20.595L68.117 23.719L71.201 26.7851C71.2592 26.7273 71.3756 26.5537 71.492 26.4959Z" fill="#F79532"/>
<path d="M67.1859 16.4876C67.0114 16.3141 66.7786 16.3141 66.6622 16.4876L64.0437 19.0909L63.8109 19.2645L66.895 22.3306L69.979 19.2645L67.1859 16.4876Z" fill="#F79532"/>
<path d="M63.8109 27.9421C63.8109 27.9421 63.9855 28.1157 64.0437 28.1736L66.5458 30.6612C66.7204 30.8347 67.0114 30.8347 67.1859 30.6612L69.6881 28.1736C69.8045 28.0579 69.9208 27.9421 69.9208 27.9421L66.8368 24.876L63.8109 27.9421Z" fill="#F79532"/>
<path d="M62.589 20.5372L59.7959 23.314C59.6213 23.4876 59.6213 23.7769 59.7959 23.9504L62.298 26.438C62.4144 26.5537 62.5308 26.6694 62.5308 26.6694L65.6148 23.6033L62.6471 20.6529L62.589 20.5372Z" fill="#F79532"/>
</svg>
