<svg width="226" height="36" viewBox="0 0 226 36" fill="none" xmlns="http://www.w3.org/2000/svg">
<path d="M47.6507 0.819078L47.4757 0.652213L47.3031 0.821525L44.0521 4.01039L43.8701 4.18887L44.0521 4.36734L44.8884 5.18771L45.0635 5.35942L45.2386 5.18771L47.4923 2.97705L51.1573 6.47209L51.1577 6.47239L51.1591 6.47378L51.1594 6.47408C51.4553 6.75427 51.8041 7.07132 52.188 7.42028L52.1892 7.42135C54.1122 9.16936 56.9443 11.7458 58.8125 14.8153C59.9256 16.6443 60.656 18.589 60.6644 20.5785C60.6727 22.5468 59.9752 24.6406 58.0845 26.7952C56.3842 28.7328 54.5169 29.6504 52.6175 29.9078C50.6978 30.1679 48.6728 29.7625 46.6718 28.9252C42.6538 27.2439 38.9328 23.9048 36.7752 21.3538L36.1326 20.5941L35.8629 20.2752L35.7093 20.6636L35.3453 21.5839C33.3179 26.7102 29.4561 29.7018 25.3771 31.4094C22.1078 32.7779 18.5016 33.3845 15.7864 33.5447L41.7177 8.96083L52.0734 19.8999L52.242 20.078L52.4233 19.9128L53.2901 19.1234L53.4786 18.9517L53.3032 18.7666L42.6216 7.49676L42.8485 7.2495H42.5758L42.668 6.70674L42.2768 7.13299L42.1171 6.96446L42.0686 7.2495H29.8603H29.7618L29.6898 7.31667L0.829489 34.2327L0.75 34.3069V34.4156V34.9957V35.2457H1H13.6371L13.6298 35.5892L13.9903 35.2475C16.9059 35.2926 21.7157 34.7455 26.0344 32.9377C30.091 31.2395 34.0393 28.3134 36.3752 23.422C38.6968 25.9196 42.1914 28.8538 46.0147 30.4536C48.1971 31.3668 50.5359 31.8656 52.8465 31.5525C55.1774 31.2366 57.4071 30.1036 59.3568 27.8818C61.4876 25.4537 62.3573 22.9793 62.3472 20.5716C62.3371 18.185 61.4633 15.9458 60.2552 13.9607C58.2486 10.6637 55.2081 7.904 53.3007 6.1728L53.2927 6.16553C52.9214 5.82857 52.5947 5.53202 52.3255 5.2771L52.3254 5.27701L52.3248 5.27639L52.3247 5.27631L47.6507 0.819078Z" fill="#F79532" stroke="#F69532" stroke-width="0.5"/>
<mask id="path-2-outside-1_18_637" maskUnits="userSpaceOnUse" x="71" y="8" width="155" height="20" fill="black">
<rect fill="white" x="71" y="8" width="155" height="20"/>
<path d="M76.7042 27C75.7368 27 74.8553 26.8349 74.0595 26.5046C73.2638 26.1743 72.5773 25.7497 72 25.2307L73.0298 23.886C73.5446 24.3578 74.1141 24.7353 74.7382 25.0183C75.3779 25.3014 76.0567 25.443 76.7744 25.443C77.5701 25.443 78.1786 25.27 78.5999 24.924C79.0367 24.578 79.2552 24.1298 79.2552 23.5793C79.2552 22.9817 79.0601 22.5491 78.6701 22.2818C78.2956 22.0144 77.8275 21.7628 77.2658 21.5269L75.7446 20.9135C74.9177 20.599 74.2 20.19 73.5915 19.6868C72.9986 19.1678 72.7021 18.4679 72.7021 17.5872C72.7021 16.5649 73.0922 15.747 73.8723 15.1337C74.668 14.5203 75.6822 14.2136 76.9148 14.2136C77.8041 14.2136 78.5843 14.363 79.2552 14.6619C79.9417 14.9607 80.5034 15.3067 80.9402 15.6999L79.9339 16.9738C79.5282 16.6121 79.0679 16.3211 78.553 16.1009C78.0382 15.8807 77.4843 15.7706 76.8914 15.7706C76.2049 15.7706 75.6588 15.9201 75.2531 16.2189C74.8475 16.5177 74.6446 16.9423 74.6446 17.4928C74.6446 17.9803 74.8162 18.3578 75.1595 18.6252C75.5184 18.8925 76.0098 19.152 76.6339 19.4037L78.1786 20.017C78.7715 20.2372 79.2942 20.481 79.7466 20.7484C80.2147 21.0157 80.5736 21.3617 80.8232 21.7864C81.0885 22.1953 81.2211 22.7457 81.2211 23.4377C81.2211 24.4443 80.8154 25.2936 80.0041 25.9856C79.1928 26.6619 78.0928 27 76.7042 27Z"/>
<path d="M86.9574 26.7169V16.1245H83.1191V14.4967H92.7381V16.1245H88.8999V26.7169H86.9574Z"/>
<path d="M96.3141 26.7169V14.4967H100.503C101.408 14.4967 102.204 14.6068 102.891 14.827C103.593 15.0472 104.147 15.4168 104.552 15.9358C104.958 16.4548 105.161 17.1625 105.161 18.059C105.161 18.9712 104.903 19.7261 104.388 20.3237C103.889 20.9214 103.218 21.3381 102.376 21.574L105.605 26.7169H103.522L100.503 21.81H98.2566V26.7169H96.3141ZM98.2566 20.3945H100.293C102.305 20.3945 103.312 19.6553 103.312 18.1769C103.312 17.3906 103.047 16.8401 102.516 16.5256C101.986 16.211 101.237 16.0537 100.269 16.0537H98.2566V20.3945Z"/>
<path d="M109.384 26.7169V14.4967H117.013V16.0537H111.326V19.5924H116.147V21.0786H111.326V25.1599H117.247V26.7169H109.384Z"/>
<path d="M125.95 27C124.858 27 123.875 26.7562 123.001 26.2687C122.127 25.7654 121.441 25.0419 120.941 24.0983C120.442 23.1389 120.193 21.983 120.193 20.6304C120.193 19.2936 120.45 18.1533 120.965 17.2097C121.495 16.2503 122.205 15.5111 123.095 14.9921C123.984 14.4731 124.99 14.2136 126.114 14.2136C126.894 14.2136 127.588 14.3709 128.197 14.6855C128.821 15 129.336 15.3617 129.741 15.7706L128.641 16.9738C128.298 16.6278 127.924 16.3604 127.518 16.1717C127.128 15.9672 126.668 15.865 126.137 15.865C124.951 15.865 123.992 16.2896 123.258 17.1389C122.541 17.9725 122.182 19.1206 122.182 20.5832C122.182 22.0616 122.525 23.2254 123.212 24.0747C123.914 24.924 124.858 25.3486 126.043 25.3486C126.652 25.3486 127.182 25.2385 127.635 25.0183C128.103 24.7824 128.532 24.46 128.922 24.0511L129.999 25.2307C129.468 25.8126 128.868 26.253 128.197 26.5518C127.541 26.8506 126.792 27 125.95 27Z"/>
<path d="M133.671 26.7169V14.4967H135.614V19.4744H141.418V14.4967H143.361V26.7169H141.418V21.173H135.614V26.7169H133.671Z"/>
<path d="M150.165 26.7169V22.0931L146.257 14.4967H148.316L149.861 17.7287C150.064 18.1691 150.267 18.6094 150.469 19.0498C150.688 19.4902 150.906 19.9384 151.125 20.3945H151.218C151.437 19.9384 151.647 19.4902 151.85 19.0498C152.053 18.6094 152.256 18.1691 152.459 17.7287L154.003 14.4967H156.016L152.108 22.0931V26.7169H150.165Z"/>
<path d="M164.424 26.7169V14.4967H168.566C169.533 14.4967 170.384 14.6147 171.117 14.8506C171.85 15.0865 172.42 15.4718 172.826 16.0066C173.247 16.5413 173.457 17.2726 173.457 18.2005C173.457 19.5374 172.997 20.5203 172.077 21.1494C171.172 21.7785 170.001 22.0931 168.566 22.0931H166.366V26.7169H164.424ZM166.366 20.6776H168.426C169.502 20.6776 170.29 20.481 170.789 20.0878C171.304 19.6946 171.562 19.097 171.562 18.2949C171.562 17.4613 171.297 16.8794 170.766 16.5491C170.251 16.2189 169.455 16.0537 168.379 16.0537H166.366V20.6776Z"/>
<path d="M182.154 27C181.046 27 180.063 26.7405 179.205 26.2215C178.347 25.7025 177.676 24.9633 177.192 24.0039C176.708 23.0446 176.467 21.9043 176.467 20.5832C176.467 19.2464 176.708 18.1062 177.192 17.1625C177.676 16.2031 178.347 15.4718 179.205 14.9685C180.063 14.4653 181.046 14.2136 182.154 14.2136C183.262 14.2136 184.245 14.4653 185.103 14.9685C185.961 15.4718 186.632 16.2031 187.115 17.1625C187.599 18.1062 187.841 19.2464 187.841 20.5832C187.841 21.9043 187.599 23.0446 187.115 24.0039C186.632 24.9633 185.961 25.7025 185.103 26.2215C184.245 26.7405 183.262 27 182.154 27ZM182.154 25.3486C183.262 25.3486 184.151 24.924 184.822 24.0747C185.493 23.2097 185.828 22.0459 185.828 20.5832C185.828 19.1048 185.493 17.9489 184.822 17.1153C184.151 16.2818 183.262 15.865 182.154 15.865C181.046 15.865 180.157 16.2818 179.486 17.1153C178.815 17.9489 178.479 19.1048 178.479 20.5832C178.479 22.0459 178.815 23.2097 179.486 24.0747C180.157 24.924 181.046 25.3486 182.154 25.3486Z"/>
<path d="M191.957 26.7169V14.4967H193.899V25.0891H199.446V26.7169H191.957Z"/>
<path d="M205.464 20.0642L204.903 21.81H208.554L207.992 20.0642C207.773 19.3879 207.571 18.7274 207.383 18.0826C207.196 17.422 206.993 16.7536 206.775 16.0773H206.681C206.478 16.7536 206.276 17.422 206.073 18.0826C205.886 18.7274 205.683 19.3879 205.464 20.0642ZM201.322 26.7169L205.651 14.4967H207.851L212.205 26.7169H210.145L209.022 23.2726H204.411L203.288 26.7169H201.322ZM206.354 13.0105L205.488 12.0197L208.811 9L209.911 10.2975L206.354 13.0105Z"/>
<path d="M215.17 26.7169V14.4967H217.113V20.3001H217.183L222.285 14.4967H224.438L220.389 19.2149L225 26.7169H222.917L219.219 20.5832L217.113 22.8244V26.7169H215.17Z"/>
</mask>
<path d="M76.7042 27C75.7368 27 74.8553 26.8349 74.0595 26.5046C73.2638 26.1743 72.5773 25.7497 72 25.2307L73.0298 23.886C73.5446 24.3578 74.1141 24.7353 74.7382 25.0183C75.3779 25.3014 76.0567 25.443 76.7744 25.443C77.5701 25.443 78.1786 25.27 78.5999 24.924C79.0367 24.578 79.2552 24.1298 79.2552 23.5793C79.2552 22.9817 79.0601 22.5491 78.6701 22.2818C78.2956 22.0144 77.8275 21.7628 77.2658 21.5269L75.7446 20.9135C74.9177 20.599 74.2 20.19 73.5915 19.6868C72.9986 19.1678 72.7021 18.4679 72.7021 17.5872C72.7021 16.5649 73.0922 15.747 73.8723 15.1337C74.668 14.5203 75.6822 14.2136 76.9148 14.2136C77.8041 14.2136 78.5843 14.363 79.2552 14.6619C79.9417 14.9607 80.5034 15.3067 80.9402 15.6999L79.9339 16.9738C79.5282 16.6121 79.0679 16.3211 78.553 16.1009C78.0382 15.8807 77.4843 15.7706 76.8914 15.7706C76.2049 15.7706 75.6588 15.9201 75.2531 16.2189C74.8475 16.5177 74.6446 16.9423 74.6446 17.4928C74.6446 17.9803 74.8162 18.3578 75.1595 18.6252C75.5184 18.8925 76.0098 19.152 76.6339 19.4037L78.1786 20.017C78.7715 20.2372 79.2942 20.481 79.7466 20.7484C80.2147 21.0157 80.5736 21.3617 80.8232 21.7864C81.0885 22.1953 81.2211 22.7457 81.2211 23.4377C81.2211 24.4443 80.8154 25.2936 80.0041 25.9856C79.1928 26.6619 78.0928 27 76.7042 27Z" fill="#F79532"/>
<path d="M86.9574 26.7169V16.1245H83.1191V14.4967H92.7381V16.1245H88.8999V26.7169H86.9574Z" fill="#F79532"/>
<path d="M96.3141 26.7169V14.4967H100.503C101.408 14.4967 102.204 14.6068 102.891 14.827C103.593 15.0472 104.147 15.4168 104.552 15.9358C104.958 16.4548 105.161 17.1625 105.161 18.059C105.161 18.9712 104.903 19.7261 104.388 20.3237C103.889 20.9214 103.218 21.3381 102.376 21.574L105.605 26.7169H103.522L100.503 21.81H98.2566V26.7169H96.3141ZM98.2566 20.3945H100.293C102.305 20.3945 103.312 19.6553 103.312 18.1769C103.312 17.3906 103.047 16.8401 102.516 16.5256C101.986 16.211 101.237 16.0537 100.269 16.0537H98.2566V20.3945Z" fill="#F79532"/>
<path d="M109.384 26.7169V14.4967H117.013V16.0537H111.326V19.5924H116.147V21.0786H111.326V25.1599H117.247V26.7169H109.384Z" fill="#F79532"/>
<path d="M125.95 27C124.858 27 123.875 26.7562 123.001 26.2687C122.127 25.7654 121.441 25.0419 120.941 24.0983C120.442 23.1389 120.193 21.983 120.193 20.6304C120.193 19.2936 120.45 18.1533 120.965 17.2097C121.495 16.2503 122.205 15.5111 123.095 14.9921C123.984 14.4731 124.99 14.2136 126.114 14.2136C126.894 14.2136 127.588 14.3709 128.197 14.6855C128.821 15 129.336 15.3617 129.741 15.7706L128.641 16.9738C128.298 16.6278 127.924 16.3604 127.518 16.1717C127.128 15.9672 126.668 15.865 126.137 15.865C124.951 15.865 123.992 16.2896 123.258 17.1389C122.541 17.9725 122.182 19.1206 122.182 20.5832C122.182 22.0616 122.525 23.2254 123.212 24.0747C123.914 24.924 124.858 25.3486 126.043 25.3486C126.652 25.3486 127.182 25.2385 127.635 25.0183C128.103 24.7824 128.532 24.46 128.922 24.0511L129.999 25.2307C129.468 25.8126 128.868 26.253 128.197 26.5518C127.541 26.8506 126.792 27 125.95 27Z" fill="#F79532"/>
<path d="M133.671 26.7169V14.4967H135.614V19.4744H141.418V14.4967H143.361V26.7169H141.418V21.173H135.614V26.7169H133.671Z" fill="#F79532"/>
<path d="M150.165 26.7169V22.0931L146.257 14.4967H148.316L149.861 17.7287C150.064 18.1691 150.267 18.6094 150.469 19.0498C150.688 19.4902 150.906 19.9384 151.125 20.3945H151.218C151.437 19.9384 151.647 19.4902 151.85 19.0498C152.053 18.6094 152.256 18.1691 152.459 17.7287L154.003 14.4967H156.016L152.108 22.0931V26.7169H150.165Z" fill="#F79532"/>
<path d="M164.424 26.7169V14.4967H168.566C169.533 14.4967 170.384 14.6147 171.117 14.8506C171.85 15.0865 172.42 15.4718 172.826 16.0066C173.247 16.5413 173.457 17.2726 173.457 18.2005C173.457 19.5374 172.997 20.5203 172.077 21.1494C171.172 21.7785 170.001 22.0931 168.566 22.0931H166.366V26.7169H164.424ZM166.366 20.6776H168.426C169.502 20.6776 170.29 20.481 170.789 20.0878C171.304 19.6946 171.562 19.097 171.562 18.2949C171.562 17.4613 171.297 16.8794 170.766 16.5491C170.251 16.2189 169.455 16.0537 168.379 16.0537H166.366V20.6776Z" fill="#F79532"/>
<path d="M182.154 27C181.046 27 180.063 26.7405 179.205 26.2215C178.347 25.7025 177.676 24.9633 177.192 24.0039C176.708 23.0446 176.467 21.9043 176.467 20.5832C176.467 19.2464 176.708 18.1062 177.192 17.1625C177.676 16.2031 178.347 15.4718 179.205 14.9685C180.063 14.4653 181.046 14.2136 182.154 14.2136C183.262 14.2136 184.245 14.4653 185.103 14.9685C185.961 15.4718 186.632 16.2031 187.115 17.1625C187.599 18.1062 187.841 19.2464 187.841 20.5832C187.841 21.9043 187.599 23.0446 187.115 24.0039C186.632 24.9633 185.961 25.7025 185.103 26.2215C184.245 26.7405 183.262 27 182.154 27ZM182.154 25.3486C183.262 25.3486 184.151 24.924 184.822 24.0747C185.493 23.2097 185.828 22.0459 185.828 20.5832C185.828 19.1048 185.493 17.9489 184.822 17.1153C184.151 16.2818 183.262 15.865 182.154 15.865C181.046 15.865 180.157 16.2818 179.486 17.1153C178.815 17.9489 178.479 19.1048 178.479 20.5832C178.479 22.0459 178.815 23.2097 179.486 24.0747C180.157 24.924 181.046 25.3486 182.154 25.3486Z" fill="#F79532"/>
<path d="M191.957 26.7169V14.4967H193.899V25.0891H199.446V26.7169H191.957Z" fill="#F79532"/>
<path d="M205.464 20.0642L204.903 21.81H208.554L207.992 20.0642C207.773 19.3879 207.571 18.7274 207.383 18.0826C207.196 17.422 206.993 16.7536 206.775 16.0773H206.681C206.478 16.7536 206.276 17.422 206.073 18.0826C205.886 18.7274 205.683 19.3879 205.464 20.0642ZM201.322 26.7169L205.651 14.4967H207.851L212.205 26.7169H210.145L209.022 23.2726H204.411L203.288 26.7169H201.322ZM206.354 13.0105L205.488 12.0197L208.811 9L209.911 10.2975L206.354 13.0105Z" fill="#F79532"/>
<path d="M215.17 26.7169V14.4967H217.113V20.3001H217.183L222.285 14.4967H224.438L220.389 19.2149L225 26.7169H222.917L219.219 20.5832L217.113 22.8244V26.7169H215.17Z" fill="#F79532"/>
<path d="M76.7042 27C75.7368 27 74.8553 26.8349 74.0595 26.5046C73.2638 26.1743 72.5773 25.7497 72 25.2307L73.0298 23.886C73.5446 24.3578 74.1141 24.7353 74.7382 25.0183C75.3779 25.3014 76.0567 25.443 76.7744 25.443C77.5701 25.443 78.1786 25.27 78.5999 24.924C79.0367 24.578 79.2552 24.1298 79.2552 23.5793C79.2552 22.9817 79.0601 22.5491 78.6701 22.2818C78.2956 22.0144 77.8275 21.7628 77.2658 21.5269L75.7446 20.9135C74.9177 20.599 74.2 20.19 73.5915 19.6868C72.9986 19.1678 72.7021 18.4679 72.7021 17.5872C72.7021 16.5649 73.0922 15.747 73.8723 15.1337C74.668 14.5203 75.6822 14.2136 76.9148 14.2136C77.8041 14.2136 78.5843 14.363 79.2552 14.6619C79.9417 14.9607 80.5034 15.3067 80.9402 15.6999L79.9339 16.9738C79.5282 16.6121 79.0679 16.3211 78.553 16.1009C78.0382 15.8807 77.4843 15.7706 76.8914 15.7706C76.2049 15.7706 75.6588 15.9201 75.2531 16.2189C74.8475 16.5177 74.6446 16.9423 74.6446 17.4928C74.6446 17.9803 74.8162 18.3578 75.1595 18.6252C75.5184 18.8925 76.0098 19.152 76.6339 19.4037L78.1786 20.017C78.7715 20.2372 79.2942 20.481 79.7466 20.7484C80.2147 21.0157 80.5736 21.3617 80.8232 21.7864C81.0885 22.1953 81.2211 22.7457 81.2211 23.4377C81.2211 24.4443 80.8154 25.2936 80.0041 25.9856C79.1928 26.6619 78.0928 27 76.7042 27Z" stroke="#F69532" stroke-width="0.4" mask="url(#path-2-outside-1_18_637)"/>
<path d="M86.9574 26.7169V16.1245H83.1191V14.4967H92.7381V16.1245H88.8999V26.7169H86.9574Z" stroke="#F69532" stroke-width="0.4" mask="url(#path-2-outside-1_18_637)"/>
<path d="M96.3141 26.7169V14.4967H100.503C101.408 14.4967 102.204 14.6068 102.891 14.827C103.593 15.0472 104.147 15.4168 104.552 15.9358C104.958 16.4548 105.161 17.1625 105.161 18.059C105.161 18.9712 104.903 19.7261 104.388 20.3237C103.889 20.9214 103.218 21.3381 102.376 21.574L105.605 26.7169H103.522L100.503 21.81H98.2566V26.7169H96.3141ZM98.2566 20.3945H100.293C102.305 20.3945 103.312 19.6553 103.312 18.1769C103.312 17.3906 103.047 16.8401 102.516 16.5256C101.986 16.211 101.237 16.0537 100.269 16.0537H98.2566V20.3945Z" stroke="#F69532" stroke-width="0.4" mask="url(#path-2-outside-1_18_637)"/>
<path d="M109.384 26.7169V14.4967H117.013V16.0537H111.326V19.5924H116.147V21.0786H111.326V25.1599H117.247V26.7169H109.384Z" stroke="#F69532" stroke-width="0.4" mask="url(#path-2-outside-1_18_637)"/>
<path d="M125.95 27C124.858 27 123.875 26.7562 123.001 26.2687C122.127 25.7654 121.441 25.0419 120.941 24.0983C120.442 23.1389 120.193 21.983 120.193 20.6304C120.193 19.2936 120.45 18.1533 120.965 17.2097C121.495 16.2503 122.205 15.5111 123.095 14.9921C123.984 14.4731 124.99 14.2136 126.114 14.2136C126.894 14.2136 127.588 14.3709 128.197 14.6855C128.821 15 129.336 15.3617 129.741 15.7706L128.641 16.9738C128.298 16.6278 127.924 16.3604 127.518 16.1717C127.128 15.9672 126.668 15.865 126.137 15.865C124.951 15.865 123.992 16.2896 123.258 17.1389C122.541 17.9725 122.182 19.1206 122.182 20.5832C122.182 22.0616 122.525 23.2254 123.212 24.0747C123.914 24.924 124.858 25.3486 126.043 25.3486C126.652 25.3486 127.182 25.2385 127.635 25.0183C128.103 24.7824 128.532 24.46 128.922 24.0511L129.999 25.2307C129.468 25.8126 128.868 26.253 128.197 26.5518C127.541 26.8506 126.792 27 125.95 27Z" stroke="#F69532" stroke-width="0.4" mask="url(#path-2-outside-1_18_637)"/>
<path d="M133.671 26.7169V14.4967H135.614V19.4744H141.418V14.4967H143.361V26.7169H141.418V21.173H135.614V26.7169H133.671Z" stroke="#F69532" stroke-width="0.4" mask="url(#path-2-outside-1_18_637)"/>
<path d="M150.165 26.7169V22.0931L146.257 14.4967H148.316L149.861 17.7287C150.064 18.1691 150.267 18.6094 150.469 19.0498C150.688 19.4902 150.906 19.9384 151.125 20.3945H151.218C151.437 19.9384 151.647 19.4902 151.85 19.0498C152.053 18.6094 152.256 18.1691 152.459 17.7287L154.003 14.4967H156.016L152.108 22.0931V26.7169H150.165Z" stroke="#F69532" stroke-width="0.4" mask="url(#path-2-outside-1_18_637)"/>
<path d="M164.424 26.7169V14.4967H168.566C169.533 14.4967 170.384 14.6147 171.117 14.8506C171.85 15.0865 172.42 15.4718 172.826 16.0066C173.247 16.5413 173.457 17.2726 173.457 18.2005C173.457 19.5374 172.997 20.5203 172.077 21.1494C171.172 21.7785 170.001 22.0931 168.566 22.0931H166.366V26.7169H164.424ZM166.366 20.6776H168.426C169.502 20.6776 170.29 20.481 170.789 20.0878C171.304 19.6946 171.562 19.097 171.562 18.2949C171.562 17.4613 171.297 16.8794 170.766 16.5491C170.251 16.2189 169.455 16.0537 168.379 16.0537H166.366V20.6776Z" stroke="#F69532" stroke-width="0.4" mask="url(#path-2-outside-1_18_637)"/>
<path d="M182.154 27C181.046 27 180.063 26.7405 179.205 26.2215C178.347 25.7025 177.676 24.9633 177.192 24.0039C176.708 23.0446 176.467 21.9043 176.467 20.5832C176.467 19.2464 176.708 18.1062 177.192 17.1625C177.676 16.2031 178.347 15.4718 179.205 14.9685C180.063 14.4653 181.046 14.2136 182.154 14.2136C183.262 14.2136 184.245 14.4653 185.103 14.9685C185.961 15.4718 186.632 16.2031 187.115 17.1625C187.599 18.1062 187.841 19.2464 187.841 20.5832C187.841 21.9043 187.599 23.0446 187.115 24.0039C186.632 24.9633 185.961 25.7025 185.103 26.2215C184.245 26.7405 183.262 27 182.154 27ZM182.154 25.3486C183.262 25.3486 184.151 24.924 184.822 24.0747C185.493 23.2097 185.828 22.0459 185.828 20.5832C185.828 19.1048 185.493 17.9489 184.822 17.1153C184.151 16.2818 183.262 15.865 182.154 15.865C181.046 15.865 180.157 16.2818 179.486 17.1153C178.815 17.9489 178.479 19.1048 178.479 20.5832C178.479 22.0459 178.815 23.2097 179.486 24.0747C180.157 24.924 181.046 25.3486 182.154 25.3486Z" stroke="#F69532" stroke-width="0.4" mask="url(#path-2-outside-1_18_637)"/>
<path d="M191.957 26.7169V14.4967H193.899V25.0891H199.446V26.7169H191.957Z" stroke="#F69532" stroke-width="0.4" mask="url(#path-2-outside-1_18_637)"/>
<path d="M205.464 20.0642L204.903 21.81H208.554L207.992 20.0642C207.773 19.3879 207.571 18.7274 207.383 18.0826C207.196 17.422 206.993 16.7536 206.775 16.0773H206.681C206.478 16.7536 206.276 17.422 206.073 18.0826C205.886 18.7274 205.683 19.3879 205.464 20.0642ZM201.322 26.7169L205.651 14.4967H207.851L212.205 26.7169H210.145L209.022 23.2726H204.411L203.288 26.7169H201.322ZM206.354 13.0105L205.488 12.0197L208.811 9L209.911 10.2975L206.354 13.0105Z" stroke="#F69532" stroke-width="0.4" mask="url(#path-2-outside-1_18_637)"/>
<path d="M215.17 26.7169V14.4967H217.113V20.3001H217.183L222.285 14.4967H224.438L220.389 19.2149L225 26.7169H222.917L219.219 20.5832L217.113 22.8244V26.7169H215.17Z" stroke="#F69532" stroke-width="0.4" mask="url(#path-2-outside-1_18_637)"/>
</svg>
